<svg preserveAspectRatio="none" width="100%" height="100%" overflow="visible" style="display: block;" viewBox="0 0 218 178.122" fill="none" xmlns="http://www.w3.org/2000/svg">
<g id="Group">
<g id="Vector">
</g>
<g id="Group_2">
<path id="Vector_2" d="M136.808 139.236C135.488 141.106 134.788 144.58 134.549 146.565C134.682 147.31 135.541 149.135 135.337 149.862C134.221 151.395 132.253 153.238 130.366 154.151C127.885 155.347 127.548 146.707 127.885 141.558L136.534 128.469L138.554 124.65C137.331 119.873 134.416 116.665 131.5 112.97C128.266 108.876 125.501 104.658 122.39 100.271C115.451 103.621 108.034 105.358 100.395 104.87L91.9766 104.33C90.346 104.224 89.0522 104.596 87.6964 105.278L82.0868 108.078C82.397 111.455 82.5122 114.592 82.3438 118.021C82.0603 123.897 84.7188 126.6 83.7263 130.88C80.8551 143.277 91.0993 155.312 82.6186 155.347L83.1946 159.175C83.7706 162.959 76.9027 162.782 71.4793 161.364L73.5264 155.551C73.9429 154.364 76.052 152.999 77.0711 152.13C79.9955 145.192 78.5864 137.659 76.3001 130.632L73.1364 120.91C72.4984 118.943 71.3021 117.233 70.2386 115.239L66.2951 119.235C64.4076 121.15 64.4519 123.392 65.0811 125.864C65.7103 128.336 66.1179 131.243 67.7839 133.29L70.3627 136.445C73.996 138.253 75.3873 141.771 73.5086 145.59L72.5073 149.126C69.4145 148.018 68.2093 145.431 66.3749 143.038C65.4621 141.842 62.9986 140.699 62.3251 139.245C61.4123 133.946 59.9944 129.444 58.098 124.402C57.3093 122.31 58.0625 119.342 58.3284 117.144C59.0994 110.843 63.9379 109.257 67.4117 104.259C60.3755 96.2302 57.9473 84.7187 59.4893 74.439C60.7034 66.3216 56.556 61.5983 52.2669 54.438L46.9764 63.7517C45.3636 66.5964 47.0473 73.1009 42.6962 74.0314C40.7732 74.439 37.9197 74.0314 36.1651 73.0655C33.2584 71.4615 31.8051 68.1649 31.8228 65.0012C31.8405 62.5111 31.2999 60.3222 30.9277 57.965L29.1731 47.0561C27.1969 45.6471 26.8513 43.4937 27.9236 41.5884L28.8629 34.9243L26.4348 36.3865L28.1186 33.8077C25.6816 30.7327 24.5118 25.8233 25.9651 25.5485C27.835 25.2029 29.8466 28.4198 32.7001 26.9753L32.0709 25.9916C31.9025 25.7258 31.9291 24.8573 32.2393 24.8307C32.5495 24.8042 33.285 24.9902 33.5686 25.1498L35.2169 26.0714C36.0676 26.5499 38.8945 23.3065 41.7657 21.8089C44.9471 20.4087 48.1108 20.3112 51.3542 21.7291C54.6153 21.1088 58.036 20.7543 61.1908 21.4278C63.3885 22.0836 64.8773 22.3583 67.456 22.8191C66.9864 23.4572 65.7546 24.1041 64.5139 24.494L69.8221 27.0462L70.8767 28.9603L78.4978 32.8772C80.1018 33.7014 80.988 34.8977 81.6615 36.4308C83.6554 37.6449 85.9329 38.7703 87.785 40.4895C89.0168 41.6327 91.0018 41.8542 92.8008 42.0492L93.0489 44.1849L97.1253 45.2572C97.4443 45.3369 98.4014 45.585 98.3925 45.8775L98.3748 47.3042C103.258 47.4637 102.859 50.1489 105.181 52.1428C107.502 54.1367 109.222 55.909 111.127 58.1865L115.584 57.2383C121.974 55.8824 128.319 55.1469 134.442 53.0821C137.96 51.8946 140.938 52.896 144.102 53.8265C150.837 55.8116 155.595 59.7994 160.585 64.4784C164.058 67.7307 166.797 70.655 169.11 75.1037C170.749 78.2496 173.842 81.0233 175.915 83.9832L179.602 89.2648C182.464 93.359 187.143 96.2036 192.177 94.2451C193.931 93.5628 195.544 91.7461 197.272 90.5409C197.326 92.2778 196.422 93.6691 195.456 94.9807C193.754 97.2759 191.751 98.0025 188.712 98.8267L194.915 98.809C193.214 100.572 190.918 101.202 188.34 101.946L193.09 102.159C193.355 102.168 194.286 102.531 194.153 102.708C194.02 102.885 193.524 103.603 193.311 103.683L188.756 105.34L194.862 107.121L190.458 109.23L195.296 109.665C193.524 112.678 190.369 112.58 188.765 113.856C188.189 114.308 191.175 114.627 191.131 116.364C188.251 117.1 185.557 116.736 182.686 116.16C183.085 118.863 184.795 120.006 187.418 121.105L183.971 122.904C180.373 122.789 178.45 120.68 176.066 117.915L177.156 122.665L175.198 121.052C170.988 119.554 167.825 116.524 165.813 112.633C163.633 108.406 161.551 104.569 160.647 99.3761C158.351 102.247 158.555 105.181 159.379 108.477C160.691 113.75 162.685 118.845 163.465 124.242C164.448 130.995 163.084 140.814 165.352 149.002C165.902 150.996 166.167 154.275 164.076 155.099L162.561 155.702C161.852 155.985 163.022 160.159 160.992 161.214C158.068 162.72 155.179 162.153 152.033 161.231C152.937 158.342 153.858 155.702 155.781 153.451C157.704 151.2 159.176 148.089 159.016 144.908C158.67 138.12 156.747 131.349 153.566 125.368L149.516 119.102C149.782 122.497 149.366 124.703 147.248 126.865L144.208 129.967C141.425 132.803 139.263 135.771 136.808 139.236ZM148.098 116.16C147.248 113.449 146.104 111.49 144.669 109.514C145.068 112.226 146.122 114.618 148.098 116.16Z" fill="url(#paint0_linear_0_8)"/>
<g id="Vector_3">
</g>
</g>
</g>
<defs>
<linearGradient id="paint0_linear_0_8" x1="111.302" y1="20.7112" x2="111.302" y2="162.296" gradientUnits="userSpaceOnUse">
<stop stop-color="#C2EAF9"/>
<stop offset="1" stop-color="#B0DEF0"/>
</linearGradient>
</defs>
</svg>
